<svg width="1373" height="381" viewBox="0 0 1373 381" fill="none" xmlns="http://www.w3.org/2000/svg">
<g filter="url(#filter0_d)">
<g filter="url(#filter1_d)">
<path d="M44 211.402C57.2548 211.402 68 200.942 68 188.038C68 175.134 57.2548 164.674 44 164.674C30.7452 164.674 20 175.134 20 188.038C20 200.942 30.7452 211.402 44 211.402Z" fill="black"/>
</g>
<path d="M44 211.402C57.2548 211.402 68 200.942 68 188.038C68 175.134 57.2548 164.674 44 164.674C30.7452 164.674 20 175.134 20 188.038C20 200.942 30.7452 211.402 44 211.402Z" fill="#0070F4"/>
<g filter="url(#filter2_d)">
<path d="M239 280.519C245.627 280.519 251 275.289 251 268.837C251 262.385 245.627 257.155 239 257.155C232.373 257.155 227 262.385 227 268.837C227 275.289 232.373 280.519 239 280.519Z" fill="black"/>
</g>
<path d="M239 280.519C245.627 280.519 251 275.289 251 268.837C251 262.385 245.627 257.155 239 257.155C232.373 257.155 227 262.385 227 268.837C227 275.289 232.373 280.519 239 280.519Z" fill="#0070F4"/>
<path d="M286 162.727C290.418 162.727 294 159.24 294 154.939C294 150.638 290.418 147.151 286 147.151C281.582 147.151 278 150.638 278 154.939C278 159.24 281.582 162.727 286 162.727Z" fill="#0070F4" fill-opacity="0.32"/>
<path d="M243 205.56C246.314 205.56 249 202.945 249 199.719C249 196.493 246.314 193.878 243 193.878C239.686 193.878 237 196.493 237 199.719C237 202.945 239.686 205.56 243 205.56Z" fill="#0070F4" fill-opacity="0.64"/>
<path d="M6 248.394C7.10457 248.394 8 247.522 8 246.447C8 245.372 7.10457 244.5 6 244.5C4.89543 244.5 4 245.372 4 246.447C4 247.522 4.89543 248.394 6 248.394Z" fill="#0070F4" fill-opacity="0.64"/>
<path d="M22 128.655C23.1046 128.655 24 127.783 24 126.708C24 125.633 23.1046 124.761 22 124.761C20.8954 124.761 20 125.633 20 126.708C20 127.783 20.8954 128.655 22 128.655Z" fill="#0070F4"/>
<g opacity="0.16" filter="url(#filter3_f)">
<path d="M251 268.836L338 239.632" stroke="#666666" stroke-width="2"/>
</g>
<path d="M129 116C195.667 120.543 233.667 148.45 243 199.72M251 263.969C362.333 223.732 392 188.687 340 158.833L251 263.969Z" stroke="url(#paint0_linear)" stroke-width="2" stroke-dasharray="2 2"/>
<g filter="url(#filter4_d)">
<path d="M1276.74 77.1574C1267.36 86.53 1267.16 101.525 1276.29 110.649C1285.41 119.773 1300.4 119.572 1309.78 110.199C1319.15 100.826 1319.35 85.8319 1310.23 76.7077C1301.1 67.5835 1286.11 67.7848 1276.74 77.1574Z" fill="black"/>
</g>
<path d="M1276.74 77.1574C1267.36 86.53 1267.16 101.525 1276.29 110.649C1285.41 119.773 1300.4 119.572 1309.78 110.199C1319.15 100.826 1319.35 85.8319 1310.23 76.7077C1301.1 67.5835 1286.11 67.7848 1276.74 77.1574Z" fill="#0070F4"/>
<g filter="url(#filter5_d)">
<path d="M1089.98 166.17C1085.29 170.856 1085.19 178.354 1089.75 182.916C1094.31 187.478 1101.81 187.377 1106.5 182.691C1111.18 178.005 1111.29 170.507 1106.72 165.945C1102.16 161.383 1094.66 161.484 1089.98 166.17Z" fill="black"/>
</g>
<path d="M1089.98 166.17C1085.29 170.856 1085.19 178.354 1089.75 182.916C1094.31 187.478 1101.81 187.377 1106.5 182.691C1111.18 178.005 1111.29 170.507 1106.72 165.945C1102.16 161.383 1094.66 161.484 1089.98 166.17Z" fill="#0070F4"/>
<path d="M1140.03 282.696C1136.91 285.82 1136.84 290.818 1139.88 293.859C1142.93 296.901 1147.92 296.834 1151.05 293.71C1154.17 290.585 1154.24 285.587 1151.2 282.546C1148.16 279.504 1143.16 279.571 1140.03 282.696Z" fill="#0070F4" fill-opacity="0.32"/>
<path d="M1140.15 222.002C1137.81 224.346 1137.76 228.094 1140.04 230.375C1142.32 232.656 1146.07 232.606 1148.41 230.263C1150.76 227.92 1150.81 224.171 1148.53 221.89C1146.24 219.609 1142.5 219.659 1140.15 222.002Z" fill="#0070F4" fill-opacity="0.64"/>
<path d="M1277.45 24.13C1276.67 24.911 1276.65 26.1606 1277.41 26.9209C1278.17 27.6813 1279.42 27.6645 1280.2 26.8835C1280.98 26.1024 1281 24.8528 1280.24 24.0925C1279.48 23.3321 1278.23 23.3489 1277.45 24.13Z" fill="#0070F4" fill-opacity="0.64"/>
<path d="M1350.8 120.112C1350.02 120.893 1350.01 122.143 1350.77 122.903C1351.53 123.663 1352.78 123.646 1353.56 122.865C1354.34 122.084 1354.35 120.835 1353.59 120.074C1352.83 119.314 1351.58 119.331 1350.8 120.112Z" fill="#0070F4"/>
<g opacity="0.16" filter="url(#filter6_f)">
<path d="M1089.75 182.917L1048.89 265.085" stroke="#666666" stroke-width="2"/>
</g>
<path d="M1284.09 204.721C1233.74 248.649 1187.13 255.786 1144.28 226.132M1093.19 186.358C1042.92 293.534 1046.72 339.293 1104.6 323.633L1093.19 186.358Z" stroke="url(#paint1_linear)" stroke-width="2" stroke-dasharray="2 2"/>
</g>
<defs>
<filter id="filter0_d" x="0" y="22.7158" width="1358.97" height="358.176" filterUnits="userSpaceOnUse" color-interpolation-filters="sRGB">
<feFlood flood-opacity="0" result="BackgroundImageFix"/>
<feColorMatrix in="SourceAlpha" type="matrix" values="0 0 0 0 0 0 0 0 0 0 0 0 0 0 0 0 0 0 127 0"/>
<feOffset dy="4"/>
<feGaussianBlur stdDeviation="2"/>
<feColorMatrix type="matrix" values="0 0 0 0 0 0 0 0 0 0 0 0 0 0 0 0 0 0 0.25 0"/>
<feBlend mode="normal" in2="BackgroundImageFix" result="effect1_dropShadow"/>
<feBlend mode="normal" in="SourceGraphic" in2="effect1_dropShadow" result="shape"/>
</filter>
<filter id="filter1_d" x="8" y="156.674" width="72" height="70.728" filterUnits="userSpaceOnUse" color-interpolation-filters="sRGB">
<feFlood flood-opacity="0" result="BackgroundImageFix"/>
<feColorMatrix in="SourceAlpha" type="matrix" values="0 0 0 0 0 0 0 0 0 0 0 0 0 0 0 0 0 0 127 0"/>
<feOffset dy="4"/>
<feGaussianBlur stdDeviation="6"/>
<feColorMatrix type="matrix" values="0 0 0 0 0 0 0 0 0 0.439216 0 0 0 0 0.956863 0 0 0 0.32 0"/>
<feBlend mode="normal" in2="BackgroundImageFix" result="effect1_dropShadow"/>
<feBlend mode="normal" in="SourceGraphic" in2="effect1_dropShadow" result="shape"/>
</filter>
<filter id="filter2_d" x="215" y="249.155" width="48" height="47.364" filterUnits="userSpaceOnUse" color-interpolation-filters="sRGB">
<feFlood flood-opacity="0" result="BackgroundImageFix"/>
<feColorMatrix in="SourceAlpha" type="matrix" values="0 0 0 0 0 0 0 0 0 0 0 0 0 0 0 0 0 0 127 0"/>
<feOffset dy="4"/>
<feGaussianBlur stdDeviation="6"/>
<feColorMatrix type="matrix" values="0 0 0 0 0 0 0 0 0 0.439216 0 0 0 0 0.956863 0 0 0 0.32 0"/>
<feBlend mode="normal" in2="BackgroundImageFix" result="effect1_dropShadow"/>
<feBlend mode="normal" in="SourceGraphic" in2="effect1_dropShadow" result="shape"/>
</filter>
<filter id="filter3_f" x="248.682" y="236.684" width="91.6365" height="35.1" filterUnits="userSpaceOnUse" color-interpolation-filters="sRGB">
<feFlood flood-opacity="0" result="BackgroundImageFix"/>
<feBlend mode="normal" in="SourceGraphic" in2="BackgroundImageFix" result="shape"/>
<feGaussianBlur stdDeviation="1" result="effect1_foregroundBlur"/>
</filter>
<filter id="filter4_d" x="1247.77" y="52.1868" width="90.9828" height="90.9828" filterUnits="userSpaceOnUse" color-interpolation-filters="sRGB">
<feFlood flood-opacity="0" result="BackgroundImageFix"/>
<feColorMatrix in="SourceAlpha" type="matrix" values="0 0 0 0 0 0 0 0 0 0 0 0 0 0 0 0 0 0 127 0"/>
<feOffset dy="4"/>
<feGaussianBlur stdDeviation="6"/>
<feColorMatrix type="matrix" values="0 0 0 0 0 0 0 0 0 0.439216 0 0 0 0 0.956863 0 0 0 0.32 0"/>
<feBlend mode="normal" in2="BackgroundImageFix" result="effect1_dropShadow"/>
<feBlend mode="normal" in="SourceGraphic" in2="effect1_dropShadow" result="shape"/>
</filter>
<filter id="filter5_d" x="1069.49" y="149.685" width="57.4914" height="57.4914" filterUnits="userSpaceOnUse" color-interpolation-filters="sRGB">
<feFlood flood-opacity="0" result="BackgroundImageFix"/>
<feColorMatrix in="SourceAlpha" type="matrix" values="0 0 0 0 0 0 0 0 0 0 0 0 0 0 0 0 0 0 127 0"/>
<feOffset dy="4"/>
<feGaussianBlur stdDeviation="6"/>
<feColorMatrix type="matrix" values="0 0 0 0 0 0 0 0 0 0.439216 0 0 0 0 0.956863 0 0 0 0.32 0"/>
<feBlend mode="normal" in2="BackgroundImageFix" result="effect1_dropShadow"/>
<feBlend mode="normal" in="SourceGraphic" in2="effect1_dropShadow" result="shape"/>
</filter>
<filter id="filter6_f" x="1025.34" y="180.021" width="87.9594" height="87.9594" filterUnits="userSpaceOnUse" color-interpolation-filters="sRGB">
<feFlood flood-opacity="0" result="BackgroundImageFix"/>
<feBlend mode="normal" in="SourceGraphic" in2="BackgroundImageFix" result="shape"/>
<feGaussianBlur stdDeviation="1" result="effect1_foregroundBlur"/>
</filter>
<linearGradient id="paint0_linear" x1="246.916" y1="116" x2="246.916" y2="263.969" gradientUnits="userSpaceOnUse">
<stop stop-color="#0070F4" stop-opacity="0"/>
<stop offset="0.52449" stop-color="#0070F4" stop-opacity="0.64"/>
<stop offset="1" stop-color="#0070F4" stop-opacity="0"/>
</linearGradient>
<linearGradient id="paint1_linear" x1="1200.71" y1="288.1" x2="1096.08" y2="183.47" gradientUnits="userSpaceOnUse">
<stop stop-color="#0070F4" stop-opacity="0"/>
<stop offset="0.52449" stop-color="#0070F4" stop-opacity="0.64"/>
<stop offset="1" stop-color="#0070F4" stop-opacity="0"/>
</linearGradient>
</defs>
</svg>
